<svg width="100" height="100" viewBox="0 0 100 100" fill="none" xmlns="http://www.w3.org/2000/svg">
<path d="M49.5 50.5V18.8333C49.5 17.7835 49.917 16.7767 50.6594 16.0344C51.4017 15.292 52.4085 14.875 53.4583 14.875H78.384C79.1926 14.8751 79.9818 15.1228 80.6454 15.5848C81.309 16.0469 81.8152 16.7011 82.0958 17.4594C82.3765 18.2178 82.4182 19.0439 82.2153 19.8267C82.0124 20.6094 81.5746 21.3112 80.9608 21.8377L62.3725 37.77" stroke="white" stroke-width="4" stroke-linecap="round" stroke-linejoin="round"/>
<path d="M49.5 86.1251L20.1529 56.778C18.6681 55.2937 17.8338 53.2803 17.8333 51.1809V28.3928C17.8372 27.6117 18.0717 26.8491 18.5073 26.2008C18.9428 25.5524 19.5602 25.0471 20.2818 24.7482C21.0035 24.4493 21.7973 24.3702 22.5637 24.5207C23.3302 24.6712 24.0351 25.0446 24.5902 25.5942L81.1666 82.2024" stroke="white" stroke-width="4" stroke-linecap="round" stroke-linejoin="round"/>
<path d="M50.3471 16.3831L83.6525 75.6235C84.0763 76.378 84.2412 77.2507 84.1218 78.1079C84.0024 78.9651 83.6054 79.7595 82.9915 80.3695L78.3682 84.9731C77.6257 85.7116 76.6208 86.1258 75.5736 86.1249H27.1394C26.2402 86.1254 25.3677 85.8196 24.6655 85.2581L14.8646 77.4166C14.2222 76.9029 13.7558 76.2019 13.5302 75.411C13.3045 74.62 13.3309 73.7784 13.6055 73.0032C13.8802 72.2279 14.3896 71.5574 15.0629 71.0849C15.7361 70.6125 16.5399 70.3615 17.3623 70.3668L33.8488 70.4737" stroke="white" stroke-width="4" stroke-linecap="round" stroke-linejoin="round"/>
</svg>
