<svg width="322" height="99" viewBox="0 0 322 99" fill="none" xmlns="http://www.w3.org/2000/svg">
<path d="M51.5 49.5V17.8333C51.5 16.7835 51.917 15.7767 52.6594 15.0344C53.4017 14.292 54.4085 13.875 55.4583 13.875H80.384C81.1926 13.8751 81.9818 14.1228 82.6454 14.5848C83.309 15.0469 83.8152 15.7011 84.0958 16.4594C84.3765 17.2178 84.4182 18.0439 84.2153 18.8267C84.0124 19.6094 83.5746 20.3112 82.9608 20.8377L64.3725 36.77" stroke="white" stroke-width="4" stroke-linecap="round" stroke-linejoin="round"/>
<path d="M51.5 85.1251L22.1529 55.778C20.6681 54.2937 19.8338 52.2803 19.8333 50.1809V27.3928C19.8372 26.6117 20.0717 25.8491 20.5073 25.2008C20.9428 24.5524 21.5602 24.0471 22.2818 23.7482C23.0035 23.4493 23.7973 23.3702 24.5637 23.5207C25.3302 23.6712 26.0351 24.0446 26.5902 24.5942L83.1666 81.2024" stroke="white" stroke-width="4" stroke-linecap="round" stroke-linejoin="round"/>
<path d="M52.3471 15.3831L85.6525 74.6235C86.0763 75.378 86.2412 76.2507 86.1218 77.1079C86.0024 77.9651 85.6054 78.7595 84.9915 79.3695L80.3682 83.9731C79.6257 84.7116 78.6208 85.1258 77.5736 85.1249H29.1394C28.2402 85.1254 27.3677 84.8196 26.6655 84.2581L16.8646 76.4166C16.2222 75.9029 15.7558 75.2019 15.5302 74.411C15.3045 73.62 15.3309 72.7784 15.6055 72.0032C15.8802 71.2279 16.3896 70.5574 17.0629 70.0849C17.7361 69.6125 18.5399 69.3615 19.3623 69.3668L35.8488 69.4737" stroke="white" stroke-width="4" stroke-linecap="round" stroke-linejoin="round"/>
<path d="M145.14 70.28C142.22 70.28 139.6 69.84 137.28 68.96C134.96 68.08 133 66.8 131.4 65.12C129.8 63.4 128.58 61.3 127.74 58.82C126.9 56.3 126.48 53.42 126.48 50.18C126.48 46.9 126.9 43.96 127.74 41.36C128.62 38.76 129.86 36.56 131.46 34.76C133.06 32.92 134.98 31.52 137.22 30.56C139.46 29.6 141.96 29.12 144.72 29.12C146.84 29.12 148.8 29.42 150.6 30.02C152.4 30.58 153.96 31.4 155.28 32.48C156.6 33.56 157.62 34.88 158.34 36.44C159.1 38 159.5 39.76 159.54 41.72L153.36 43.28C153.4 41.36 153 39.78 152.16 38.54C151.36 37.26 150.28 36.3 148.92 35.66C147.56 35.02 146.1 34.7 144.54 34.7C143.1 34.7 141.7 34.98 140.34 35.54C138.98 36.1 137.76 37 136.68 38.24C135.64 39.44 134.8 41 134.16 42.92C133.56 44.84 133.26 47.16 133.26 49.88C133.26 53.36 133.76 56.2 134.76 58.4C135.8 60.56 137.22 62.16 139.02 63.2C140.86 64.2 142.96 64.7 145.32 64.7C147.68 64.7 149.56 64.24 150.96 63.32C152.36 62.4 153.38 61.18 154.02 59.66C154.7 58.1 155.08 56.34 155.16 54.38L160.98 55.4C160.94 57.44 160.62 59.38 160.02 61.22C159.42 63.02 158.48 64.6 157.2 65.96C155.96 67.32 154.34 68.38 152.34 69.14C150.34 69.9 147.94 70.28 145.14 70.28ZM167.754 69.5V50.36V27.2H174.354V36.92C174.354 37.76 174.334 38.64 174.294 39.56C174.254 40.44 174.174 41.34 174.054 42.26C173.934 43.18 173.814 44.1 173.694 45.02C173.574 45.94 173.434 46.88 173.274 47.84H174.354C174.954 45.6 175.694 43.72 176.574 42.2C177.494 40.64 178.634 39.48 179.994 38.72C181.394 37.92 183.074 37.52 185.034 37.52C188.634 37.52 191.314 38.78 193.074 41.3C194.834 43.78 195.714 47.52 195.714 52.52V69.5H189.114V53.36C189.114 49.84 188.574 47.26 187.494 45.62C186.454 43.98 184.874 43.16 182.754 43.16C180.994 43.16 179.514 43.68 178.314 44.72C177.154 45.76 176.234 47.16 175.554 48.92C174.874 50.68 174.434 52.68 174.234 54.92V69.5H167.754ZM204.258 69.5V38.3H210.738V69.5H204.258ZM207.498 33.08C206.098 33.08 205.038 32.8 204.318 32.24C203.598 31.64 203.238 30.76 203.238 29.6C203.238 28.48 203.598 27.62 204.318 27.02C205.038 26.42 206.098 26.12 207.498 26.12C208.938 26.12 210.018 26.42 210.738 27.02C211.458 27.62 211.818 28.48 211.818 29.6C211.818 30.76 211.458 31.64 210.738 32.24C210.018 32.8 208.938 33.08 207.498 33.08ZM233.465 70.28C230.785 70.28 228.465 69.86 226.505 69.02C224.585 68.18 223.005 67.02 221.765 65.54C220.525 64.06 219.605 62.36 219.005 60.44C218.405 58.52 218.105 56.46 218.105 54.26C218.105 51.9 218.425 49.72 219.065 47.72C219.705 45.68 220.645 43.9 221.885 42.38C223.165 40.82 224.745 39.62 226.625 38.78C228.505 37.94 230.685 37.52 233.165 37.52C235.605 37.52 237.725 37.94 239.525 38.78C241.365 39.58 242.865 40.74 244.025 42.26C245.185 43.74 245.945 45.48 246.305 47.48L240.185 49.34C240.065 48.18 239.725 47.1 239.165 46.1C238.605 45.1 237.805 44.32 236.765 43.76C235.725 43.16 234.465 42.86 232.985 42.86C231.585 42.86 230.365 43.14 229.325 43.7C228.285 44.22 227.425 45 226.745 46.04C226.065 47.04 225.545 48.22 225.185 49.58C224.865 50.94 224.705 52.44 224.705 54.08C224.705 56.32 225.005 58.28 225.605 59.96C226.245 61.6 227.225 62.88 228.545 63.8C229.865 64.68 231.525 65.12 233.525 65.12C235.205 65.12 236.585 64.82 237.665 64.22C238.745 63.62 239.585 62.82 240.185 61.82C240.785 60.78 241.185 59.58 241.385 58.22L247.205 59.6C246.965 61.24 246.485 62.74 245.765 64.1C245.045 65.42 244.105 66.54 242.945 67.46C241.785 68.38 240.405 69.08 238.805 69.56C237.245 70.04 235.465 70.28 233.465 70.28ZM253.066 69.5V27.14H259.486V51.08C260.966 50.28 262.366 49.36 263.686 48.32C265.046 47.24 266.286 46.12 267.406 44.96C268.566 43.8 269.566 42.66 270.406 41.54C271.286 40.38 271.966 39.3 272.446 38.3H280.006C279.286 39.82 278.366 41.34 277.246 42.86C276.166 44.34 274.926 45.74 273.526 47.06C272.126 48.34 270.586 49.46 268.906 50.42C267.266 51.34 265.546 51.98 263.746 52.34V53.12C265.986 52.88 267.906 53.06 269.506 53.66C271.106 54.26 272.486 55.16 273.646 56.36C274.806 57.56 275.826 58.96 276.706 60.56C277.626 62.12 278.486 63.72 279.286 65.36L280.966 69.5H273.766L272.566 66.68C271.686 64.64 270.746 62.84 269.746 61.28C268.786 59.68 267.626 58.42 266.266 57.5C264.946 56.58 263.306 56.12 261.346 56.12H259.486V69.5H253.066ZM297.865 80.06C296.265 80.06 294.645 79.88 293.005 79.52C291.405 79.2 289.925 78.68 288.565 77.96C287.205 77.28 286.065 76.38 285.145 75.26L287.785 70.1C288.825 71.46 290.225 72.48 291.985 73.16C293.745 73.88 295.605 74.24 297.565 74.24C299.805 74.24 301.645 73.76 303.085 72.8C304.565 71.88 305.685 70.44 306.445 68.48C307.205 66.52 307.605 64.06 307.645 61.1L308.185 55.1H307.045C306.605 57.94 305.905 60.22 304.945 61.94C304.025 63.66 302.885 64.9 301.525 65.66C300.165 66.42 298.565 66.8 296.725 66.8C294.445 66.8 292.525 66.24 290.965 65.12C289.445 63.96 288.285 62.26 287.485 60.02C286.725 57.74 286.345 54.96 286.345 51.68V38.3H292.825V50.24C292.825 54.04 293.325 56.82 294.325 58.58C295.365 60.34 296.905 61.22 298.945 61.22C300.065 61.22 301.065 60.94 301.945 60.38C302.825 59.82 303.585 59 304.225 57.92C304.905 56.8 305.425 55.42 305.785 53.78C306.185 52.14 306.425 50.24 306.505 48.08V38.3H313.045V61.4C313.045 63.88 312.845 66.12 312.445 68.12C312.045 70.08 311.425 71.8 310.585 73.28C309.785 74.8 308.785 76.06 307.585 77.06C306.385 78.1 304.965 78.86 303.325 79.34C301.725 79.82 299.905 80.06 297.865 80.06Z" fill="white"/>
</svg>
